<?xml version="1.0" encoding="UTF-8" standalone="no"?>
<svg
   viewBox="0 0 16 16"
   version="1.1"
   id="svg1"
   sodipodi:docname="mask_inpainting.svg"
   inkscape:version="1.3.2 (091e20ef0f, 2023-11-25, custom)"
   xmlns:inkscape="http://www.inkscape.org/namespaces/inkscape"
   xmlns:sodipodi="http://sodipodi.sourceforge.net/DTD/sodipodi-0.dtd"
   xmlns="http://www.w3.org/2000/svg"
   xmlns:svg="http://www.w3.org/2000/svg">
  <sodipodi:namedview
     id="namedview1"
     pagecolor="#505050"
     bordercolor="#ffffff"
     borderopacity="1"
     inkscape:showpageshadow="0"
     inkscape:pageopacity="0"
     inkscape:pagecheckerboard="1"
     inkscape:deskcolor="#d1d1d1"
     inkscape:zoom="50.1875"
     inkscape:cx="8.0099626"
     inkscape:cy="7.9900374"
     inkscape:window-width="2560"
     inkscape:window-height="1362"
     inkscape:window-x="0"
     inkscape:window-y="0"
     inkscape:window-maximized="1"
     inkscape:current-layer="svg1" />
  <defs
     id="defs3051">
    <style
       type="text/css"
       id="current-color-scheme">
      .ColorScheme-Text {
        color:#fcfcfc;
      }
      </style>
  </defs>
  <path
     style="display:inline;fill:currentColor;fill-opacity:1;stroke:none"
     d="M 2,2 V 14 H 14 V 2 Z M 3,3 H 13 V 13 H 3 Z"
     class="ColorScheme-Text"
     id="path1"
     sodipodi:nodetypes="cccccccccc" />
  <rect
     style="display:none;fill:#edefef;fill-opacity:0.501961;stroke:none;stroke-width:0.628003;stroke-linecap:square;stroke-miterlimit:3"
     id="rect1"
     width="10"
     height="10"
     x="3"
     y="3" />
  <path
     style="color:#fcfcfc;fill:currentColor;fill-opacity:1;stroke:none;stroke-width:0.625043"
     d="M 11.392803,4.2534933 A 0.93764485,4.2194033 44.989453 0 0 8.0319871,6.643787 0.93764485,4.2194033 44.989453 0 0 6.3717217,8.5726259 C 6.8761178,8.7333236 7.2695056,9.1264495 7.4301409,9.631045 a 0.93764485,4.2194033 44.989453 0 0 1.927617,-1.6614867 0.93764485,4.2194033 44.989453 0 0 2.3194921,-3.6464802 0.93764485,4.2194033 44.989453 0 0 -0.155038,-0.069585 0.93764485,4.2194033 44.989453 0 0 -0.129409,2e-7 z M 6.1251227,9.247719 v 0.00247 c -1.875073,0.502632 -0.4688179,1.689275 -1.8751228,2.50014 1.8750736,0 2.8126854,-0.938033 2.8126854,-1.563826 0,-0.3119577 0.031843,-0.886903 -0.9375626,-0.9387811 z"
     class="ColorScheme-Text"
     id="path1-75" />
</svg>
