<?xml version="1.0" encoding="UTF-8" standalone="no"?>
<svg
   viewBox="0 0 16 16"
   version="1.1"
   id="svg1"
   sodipodi:docname="step-text-detection-symbolic.svg"
   inkscape:version="1.3 (0e150ed6c4, 2023-07-21)"
   xmlns:inkscape="http://www.inkscape.org/namespaces/inkscape"
   xmlns:sodipodi="http://sodipodi.sourceforge.net/DTD/sodipodi-0.dtd"
   xmlns="http://www.w3.org/2000/svg"
   xmlns:svg="http://www.w3.org/2000/svg">
  <sodipodi:namedview
     id="namedview1"
     pagecolor="#505050"
     bordercolor="#ffffff"
     borderopacity="1"
     inkscape:showpageshadow="0"
     inkscape:pageopacity="0"
     inkscape:pagecheckerboard="1"
     inkscape:deskcolor="#d1d1d1"
     inkscape:zoom="45.254834"
     inkscape:cx="6.2755727"
     inkscape:cy="7.6124464"
     inkscape:window-width="1920"
     inkscape:window-height="1007"
     inkscape:window-x="0"
     inkscape:window-y="0"
     inkscape:window-maximized="1"
     inkscape:current-layer="svg1" />
  <defs
     id="defs3051">
    <style
       type="text/css"
       id="current-color-scheme">&#10;      .ColorScheme-Text {&#10;        color:#eff0f1;&#10;      }&#10;      </style>
  </defs>
  <path
     style="fill:currentColor;fill-opacity:1;stroke:none"
     d="M 2,2 V 14 H 14 V 2 Z M 3,3 H 13 V 13 H 3 Z"
     class="ColorScheme-Text"
     id="path1"
     sodipodi:nodetypes="cccccccccc" />
  <path
     style="fill:#eff0f1;fill-opacity:1;stroke-width:0.9;stroke-linecap:square;stroke-miterlimit:3"
     id="path5"
     d="M 4.7872474,8.0826816 C 4.8220358,7.8704739 4.8605989,7.6589383 4.9108455,7.4498074 4.9406268,7.341779 4.9675525,7.2356555 5.0439704,7.1504561 c 0.00907,-0.01011 0.019904,-0.018484 0.029856,-0.027725 C 5.2032157,7.0172594 5.3736408,6.9914841 5.5320816,6.9584721 5.8122635,6.9136187 6.0919918,6.8652263 6.3726703,6.8234886 6.530351,6.8000409 6.6409618,6.7868467 6.7992646,6.7667325 7.222993,6.7141594 7.6497839,6.6937575 8.0755968,6.6655397 8.2477961,6.6539049 8.419879,6.6406546 8.5918809,6.6264168 8.7202841,6.615788 8.8207517,6.608789 8.9500091,6.589129 9.0337491,6.576392 9.1168321,6.559653 9.2002436,6.544914 9.6069549,6.456725 10.009394,6.3461677 10.402831,6.2102229 c 0.06266,-0.02165 0.124686,-0.045076 0.187029,-0.067614 0.158883,-0.059686 0.315688,-0.1236684 0.467339,-0.1998992 0.04769,-0.024146 -0.293793,-0.6985238 -0.341479,-0.6743776 v 0 c -0.123938,0.063455 -0.253594,0.1133306 -0.383359,0.1635817 -0.05584,0.020283 -0.11139,0.041392 -0.167525,0.060848 C 9.8055676,5.6172767 9.4380959,5.718527 9.0669881,5.8008471 8.9975064,5.8134906 8.9283225,5.8278975 8.8585429,5.8387777 8.7410086,5.8571038 8.6487513,5.863213 8.5307223,5.8729894 8.3624422,5.8869282 8.1940829,5.8999012 8.0256093,5.9112888 7.5846287,5.9405174 7.1426636,5.9619396 6.7038895,6.016868 6.5306311,6.0389259 6.4277228,6.0511069 6.2547127,6.0768433 5.9604972,6.1206098 5.6671717,6.170843 5.373723,6.2193404 5.2155686,6.2539265 5.139659,6.2651761 4.988497,6.3184949 4.8138129,6.3801105 4.6537756,6.4784285 4.5209538,6.6072457 4.4426613,6.6949695 4.422953,6.7092345 4.3619748,6.8063947 4.2715249,6.950514 4.2174988,7.1103985 4.1755815,7.2743655 4.1227727,7.4969634 4.0800482,7.721625 4.0435347,7.9474611 c -0.00956,0.052589 0.7341511,0.187809 0.7437127,0.1352205 z" />
  <path
     style="fill:#eff0f1;fill-opacity:1;stroke-width:0.9;stroke-linecap:square;stroke-miterlimit:3"
     id="path6"
     d="m 5.4541735,5.5689548 c -0.025284,0.2897528 -0.024354,0.5803821 -0.018776,0.870884 0.025482,0.6184716 0.0811,1.2351796 0.1297493,1.8521291 0.030053,0.404647 0.062326,0.8092972 0.079622,1.214754 0.00841,0.1971986 0.00843,0.2545675 0.012048,0.4461729 0.00122,0.1524942 -0.00218,0.3057842 -0.023388,0.4570642 -0.00713,0.05084 -0.01951,0.129732 -0.040437,0.178152 -0.022201,0.05456 -0.051177,0.104732 -0.077404,0.159548 -0.033191,0.07536 -0.061869,0.152759 -0.085941,0.231498 -0.010267,0.02047 -0.012573,0.04508 -0.024628,0.06474 -8.095e-4,0.0013 4.824e-4,-0.0031 0.00105,-0.0045 0.00148,-0.0037 0.00338,-0.0073 0.00506,-0.01095 0.00139,-0.0065 0.0073,-0.01043 0.00996,-0.01618 2.438e-4,-5.26e-4 -0.00101,5.76e-4 -0.00151,8.64e-4 -0.00244,0.0023 -0.00977,0.009 -0.00731,0.0068 0.032418,-0.02942 0.023313,-0.02102 -0.010736,0.0069 -0.040648,0.03471 0.4502072,0.60956 0.4908553,0.574852 v 0 c -0.026969,0.01929 0.0057,-0.0038 0.041316,-0.03448 0.029147,-0.02508 0.056659,-0.05533 0.080448,-0.08534 0.011615,-0.01465 0.022129,-0.03014 0.033193,-0.04521 0.010086,-0.01674 0.020876,-0.03307 0.030258,-0.05022 0.032628,-0.05962 0.05367,-0.124383 0.075573,-0.188415 0.012508,-0.04221 0.028577,-0.0831 0.04434,-0.124202 0.039423,-0.08249 0.085453,-0.162027 0.1135178,-0.24946 0.00999,-0.03259 0.02142,-0.06477 0.029968,-0.09776 0.00855,-0.033 0.015043,-0.06651 0.021275,-0.100024 0.042178,-0.226806 0.053918,-0.457638 0.050295,-0.6880599 -0.0039,-0.2027516 -0.0039,-0.2612999 -0.012854,-0.4698065 C 6.3820073,9.0561094 6.3493702,8.6443192 6.3187128,8.2325458 6.271232,7.6304193 6.2170708,7.0285393 6.1911567,6.4249835 6.1859087,6.1645332 6.1844195,5.9040184 6.2063276,5.6441702 6.2116462,5.5909849 5.4594921,5.5157695 5.4541735,5.5689548 Z" />
  <path
     style="fill:#eff0f1;fill-opacity:1;stroke-width:0.9;stroke-linecap:square;stroke-miterlimit:3"
     id="path7"
     d="m 8.5264853,4.8825683 c -0.00174,0.2619237 0.00243,0.5237888 0.00632,0.7856747 0.020433,0.6357622 0.048219,1.2713527 0.085622,1.9063452 0.02507,0.3690581 0.045184,0.7389028 0.085635,1.1067245 0.02674,0.2431499 0.038253,0.306377 0.073686,0.5475354 0.058144,0.3953501 0.1418172,0.7860989 0.2168553,1.1783789 0.029129,0.12531 0.047408,0.254518 0.088033,0.377048 0.00771,0.02326 0.017133,0.04592 0.025699,0.06889 0.020511,0.04936 0.7185441,-0.240717 0.6980327,-0.290076 v 0 c 0.00553,0.02318 0.00957,0.0391 -0.00749,-0.02381 C 9.7743533,10.448809 9.7555353,10.35699 9.7370293,10.265126 9.6639357,9.8834599 9.5824833,9.5032809 9.5255769,9.1186693 9.4926402,8.8957701 9.4812731,8.8328403 9.4564291,8.6082946 9.4167845,8.2499787 9.3976027,7.8896184 9.3730182,7.530089 9.3361824,6.9061853 9.3090758,6.2816839 9.2886241,5.6570329 9.2847951,5.3988827 9.2806345,5.140756 9.2823908,4.8825683 c 0,-0.053451 -0.7559055,-0.053451 -0.7559055,0 z" />
  <path
     style="fill:#eff0f1;stroke:#eff0f1;stroke-width:0.59999993;stroke-linecap:butt;stroke-linejoin:miter;stroke-opacity:1;fill-opacity:1;stroke-dasharray:none"
     d="m 9.6511706,10.207698 c 0.00863,-0.01618 0.022255,-0.0293 0.035223,-0.04227 0.036067,-0.03607 0.065677,-0.05625 0.1127144,-0.07749 0.055965,-0.02527 0.1752086,-0.07572 0.246563,-0.091581 0.07277,-0.016172 0.167977,-0.018898 0.239518,-0.021134 0.109599,-0.00343 0.135924,0.00424 0.267697,0.021134 0.09261,0.011873 0.184831,0.031182 0.274741,0.056357 0.03076,0.0086 0.06105,0.01879 0.09158,0.02818 0.08835,0.02718 0.127953,0.03695 0.218384,0.07749 0.02685,0.01204 0.05095,0.02957 0.07749,0.04227 0.02754,0.01317 0.05774,0.0206 0.08454,0.03522 0.05694,0.03106 0.07844,0.0588 0.126803,0.09862 0.02067,0.01702 0.04325,0.03168 0.0634,0.04931 0.02939,0.02571 0.067,0.0679 0.09158,0.09863 0.01467,0.01834 0.02991,0.03639 0.04227,0.05636 0.04396,0.07101 0.04858,0.08451 0.07045,0.154983 0.04745,0.152887 0.03726,0.09579 0.04931,0.204295 0.0023,0.02113 0.0047,0.04227 0.007,0.0634 0.0023,0.02113 0.0059,0.04217 0.007,0.0634 0.0012,0.0211 0,0.04227 0,0.0634 0,0.01879 0.0022,0.0377 0,0.05636 -0.006,0.05078 -0.0293,0.110504 -0.04931,0.154983 -0.009,0.02008 -0.04231,0.07285 -0.05636,0.09158 -0.011,0.01467 -0.02361,0.02807 -0.03522,0.04227 -0.0095,0.01164 -0.017,0.02517 -0.02818,0.03522 -0.01259,0.01133 -0.02775,0.01947 -0.04227,0.02818 -0.03247,0.01948 -0.06476,0.03942 -0.09863,0.05636 -0.03993,0.01996 -0.128844,0.04135 -0.162027,0.04931 -0.01864,0.0045 -0.131908,0.02599 -0.147937,0.02818 -0.0257,0.0035 -0.05165,0.0048 -0.07749,0.007 -0.20036,0.01742 0.03118,-9.66e-4 -0.169072,0.007 -0.03059,0.0012 -0.06096,0.007 -0.09158,0.007 -0.0353,0 -0.07045,-0.0047 -0.10567,-0.007 -0.146732,-0.0098 -0.08688,-0.0034 -0.260652,-0.02818 -0.03058,-0.0044 -0.06155,-0.0069 -0.09158,-0.01409 -0.06915,-0.0166 -0.0979,-0.03552 -0.162026,-0.0634 -0.028,-0.01217 -0.057,-0.02205 -0.08454,-0.03522 -0.09763,-0.04669 -0.05968,-0.03712 -0.1549834,-0.09158 -0.0228,-0.01302 -0.04793,-0.02172 -0.07045,-0.03522 C 9.8580516,11.370225 9.7345271,11.289475 9.70743,11.26431 9.691565,11.24958 9.679893,11.23086 9.665162,11.215 9.618614,11.16487 9.566716,11.12109 9.524269,11.067062 9.48028,11.011072 9.49697,11.027102 9.460867,10.968442 c -0.00887,-0.01442 -0.019646,-0.02764 -0.028179,-0.04227 -0.00794,-0.01361 -0.014473,-0.02799 -0.021134,-0.04227 -0.022882,-0.04903 -0.030872,-0.06333 -0.042268,-0.112714 -0.00642,-0.02784 -0.00898,-0.05643 -0.014089,-0.08454 -0.00214,-0.01178 -0.00585,-0.02331 -0.00704,-0.03522 -0.00117,-0.01168 0,-0.02348 0,-0.03522 v -0.04227 -0.03522 c 0,-0.01174 -0.00117,-0.02354 0,-0.03522 0.00119,-0.01191 0.00414,-0.02361 0.00704,-0.03522 0.00229,-0.0092 0.00826,-0.02648 0.014089,-0.03522 0.00229,-0.0034 0.024738,-0.02589 0.028179,-0.02818 0.00437,-0.0029 0.009,-0.0058 0.014089,-0.007 0.0999,-0.0241 0.026536,-0.0096 0.042268,-0.01409 0.00677,-0.0019 0.014144,8.74e-4 0.021134,0 0.1458914,0.0357 0.1117059,-0.111627 0.1762146,-0.17609 z"
     id="path8"
     sodipodi:nodetypes="sssccsccscsscscccscscccccscccccsccccsccscscsccscscscccccccs" />
</svg>
