<?xml version="1.0" encoding="UTF-8" standalone="no"?>
<svg
   viewBox="0 0 16 16"
   version="1.1"
   id="svg1"
   sodipodi:docname="trash_restore.svg"
   inkscape:version="1.3.2 (091e20ef0f, 2023-11-25, custom)"
   inkscape:export-filename="trash_restore.png"
   inkscape:export-xdpi="96"
   inkscape:export-ydpi="96"
   xmlns:inkscape="http://www.inkscape.org/namespaces/inkscape"
   xmlns:sodipodi="http://sodipodi.sourceforge.net/DTD/sodipodi-0.dtd"
   xmlns="http://www.w3.org/2000/svg"
   xmlns:svg="http://www.w3.org/2000/svg">
  <sodipodi:namedview
     id="namedview1"
     pagecolor="#505050"
     bordercolor="#ffffff"
     borderopacity="1"
     inkscape:showpageshadow="0"
     inkscape:pageopacity="0"
     inkscape:pagecheckerboard="1"
     inkscape:deskcolor="#d1d1d1"
     inkscape:zoom="45.254834"
     inkscape:cx="4.4083688"
     inkscape:cy="2.6958446"
     inkscape:window-width="2560"
     inkscape:window-height="1362"
     inkscape:window-x="0"
     inkscape:window-y="0"
     inkscape:window-maximized="1"
     inkscape:current-layer="svg1" />
  <defs
     id="defs3051">
    <style
       type="text/css"
       id="current-color-scheme">.ColorScheme-Text { color: #fcfcfc; } </style>
  </defs>
  <path
     id="path1"
     style="fill:currentColor;fill-opacity:1;stroke:none"
     class="ColorScheme-Text"
     d="M 5.2421875,1 1.7070312,4.5351562 1,5.2421875 2.4140625,6.65625 3.1210938,5.9492188 2.4140625,5.2421875 5.2421875,2.4140625 5.9492188,3.1210938 6.65625,2.4140625 Z M 5,6.9003906 l -1,1 V 14 h 8 V 6 h -1 v 7 H 5 Z M 10.193,1.707 9.484,1 1,9.484375 1.7070312,10.193359 Z"
     sodipodi:nodetypes="cccccccccccccccccccccccccc" />
  <path
     fill-rule="evenodd"
     clip-rule="evenodd"
     d="M 9.4704686,1.000029 14.152476,1 14.152447,5.6820086 12.341787,3.8713485 10.04369,6.1694456 C 8.2747683,7.9383674 8.5420191,10.334564 8.5420191,11.346904 l -1.5177262,0.0089 C 7.0699397,7.6309884 7.3676405,6.8005831 8.9830306,5.1087854 L 11.281127,2.8106883 Z"
     fill="#3daee9"
     id="path3"
     sodipodi:nodetypes="ccccsccscc" />
</svg>
