<?xml version="1.0" encoding="UTF-8" standalone="no"?>
<!-- Uploaded to: SVG Repo, www.svgrepo.com, Generator: SVG Repo Mixer Tools -->

<svg
   fill="#000000"
   height="800px"
   width="800px"
   version="1.1"
   id="Capa_1"
   viewBox="0 0 471.701 471.701"
   xml:space="preserve"
   sodipodi:docname="heart.svg"
   inkscape:version="1.3 (0e150ed6c4, 2023-07-21)"
   xmlns:inkscape="http://www.inkscape.org/namespaces/inkscape"
   xmlns:sodipodi="http://sodipodi.sourceforge.net/DTD/sodipodi-0.dtd"
   xmlns="http://www.w3.org/2000/svg"
   xmlns:svg="http://www.w3.org/2000/svg"><defs
   id="defs1" /><sodipodi:namedview
   id="namedview1"
   pagecolor="#505050"
   bordercolor="#ffffff"
   borderopacity="1"
   inkscape:showpageshadow="0"
   inkscape:pageopacity="0"
   inkscape:pagecheckerboard="1"
   inkscape:deskcolor="#d1d1d1"
   inkscape:zoom="1.005"
   inkscape:cx="400"
   inkscape:cy="400"
   inkscape:window-width="1920"
   inkscape:window-height="1008"
   inkscape:window-x="0"
   inkscape:window-y="0"
   inkscape:window-maximized="1"
   inkscape:current-layer="Capa_1" />&#10;<g
   id="g1"
   style="fill:#da4453;fill-opacity:1"
   transform="matrix(0.9351852,0,0,0.94765461,2.1181407,12.345213)">&#10;	<path
   d="m 435.87566,67.001 c -23.22537,-24.7 -53.97314,-38.2 -86.78955,-38.2 -32.81642,0 -63.65822,13.6 -86.88358,38.3 l -12.12986,12.9 -12.31791,-13.1 c -23.22538,-24.7 -54.16119,-38.4 -86.97762,-38.4 -32.72238,0 -63.564172,13.6 -86.695515,38.2 -23.225374,24.7 -36.013434,57.5 -35.919404,92.4 0,34.9 12.882089,67.6 36.107463,92.3 l 176.588066,187.8 c 2.44478,2.6 5.73582,4 8.93283,4 3.19701,0 6.48806,-1.3 8.93284,-3.9 l 176.96418,-187.5 c 23.22538,-24.7 36.01343,-57.5 36.01343,-92.4 0.0941,-34.9 -12.59999,-67.7 -35.82537,-92.4 z"
   id="path1"
   style="fill:#da4453;fill-opacity:1;stroke-width:0.96969"
   sodipodi:nodetypes="ssscssscssscccs" />&#10;</g>&#10;</svg>
